<mxfile host="Electron" agent="Mozilla/5.0 (Windows NT 10.0; Win64; x64) AppleWebKit/537.36 (KHTML, like Gecko) draw.io/25.0.2 Chrome/128.0.6613.186 Electron/32.2.5 Safari/537.36" version="25.0.2">
  <diagram name="Страница — 1" id="4wIUgCA_QT_dUVLGf23p">
    <mxGraphModel dx="921" dy="546" grid="1" gridSize="10" guides="1" tooltips="1" connect="1" arrows="1" fold="1" page="1" pageScale="1" pageWidth="827" pageHeight="1169" math="0" shadow="0">
      <root>
        <mxCell id="0" />
        <mxCell id="1" parent="0" />
        <mxCell id="1DnQPQAhIGeWm2nKyo7e-11" style="edgeStyle=orthogonalEdgeStyle;rounded=0;orthogonalLoop=1;jettySize=auto;html=1;" parent="1" source="1DnQPQAhIGeWm2nKyo7e-12" target="1DnQPQAhIGeWm2nKyo7e-25" edge="1">
          <mxGeometry relative="1" as="geometry">
            <Array as="points">
              <mxPoint x="410" y="445" />
              <mxPoint x="410" y="530" />
            </Array>
            <mxPoint x="850" y="650" as="targetPoint" />
          </mxGeometry>
        </mxCell>
        <mxCell id="1DnQPQAhIGeWm2nKyo7e-12" value="Перевести координаты поражения в читаемый формат" style="rounded=0;whiteSpace=wrap;html=1;" parent="1" vertex="1">
          <mxGeometry x="250" y="405" width="140" height="80" as="geometry" />
        </mxCell>
        <mxCell id="1DnQPQAhIGeWm2nKyo7e-13" value="5" style="text;html=1;align=center;verticalAlign=middle;whiteSpace=wrap;rounded=0;" parent="1" vertex="1">
          <mxGeometry x="340" y="455" width="60" height="30" as="geometry" />
        </mxCell>
        <mxCell id="1DnQPQAhIGeWm2nKyo7e-14" value="Координаты поражения" style="text;html=1;align=center;verticalAlign=middle;whiteSpace=wrap;rounded=0;" parent="1" vertex="1">
          <mxGeometry x="20" y="430" width="60" height="30" as="geometry" />
        </mxCell>
        <mxCell id="1DnQPQAhIGeWm2nKyo7e-15" style="edgeStyle=orthogonalEdgeStyle;rounded=0;orthogonalLoop=1;jettySize=auto;html=1;" parent="1" source="1DnQPQAhIGeWm2nKyo7e-14" target="1DnQPQAhIGeWm2nKyo7e-12" edge="1">
          <mxGeometry relative="1" as="geometry">
            <mxPoint x="220.24" y="630.04" as="targetPoint" />
            <Array as="points">
              <mxPoint x="150" y="445" />
              <mxPoint x="150" y="445" />
            </Array>
          </mxGeometry>
        </mxCell>
        <mxCell id="1DnQPQAhIGeWm2nKyo7e-16" style="edgeStyle=orthogonalEdgeStyle;rounded=0;orthogonalLoop=1;jettySize=auto;html=1;" parent="1" source="1DnQPQAhIGeWm2nKyo7e-17" target="1DnQPQAhIGeWm2nKyo7e-12" edge="1">
          <mxGeometry relative="1" as="geometry">
            <mxPoint x="430" y="420" as="targetPoint" />
          </mxGeometry>
        </mxCell>
        <mxCell id="1DnQPQAhIGeWm2nKyo7e-28" style="edgeStyle=orthogonalEdgeStyle;rounded=0;orthogonalLoop=1;jettySize=auto;html=1;" parent="1" source="1DnQPQAhIGeWm2nKyo7e-17" target="1DnQPQAhIGeWm2nKyo7e-25" edge="1">
          <mxGeometry relative="1" as="geometry">
            <Array as="points">
              <mxPoint x="320" y="360" />
              <mxPoint x="510" y="360" />
            </Array>
          </mxGeometry>
        </mxCell>
        <mxCell id="1DnQPQAhIGeWm2nKyo7e-29" style="edgeStyle=orthogonalEdgeStyle;rounded=0;orthogonalLoop=1;jettySize=auto;html=1;" parent="1" source="1DnQPQAhIGeWm2nKyo7e-17" target="1DnQPQAhIGeWm2nKyo7e-26" edge="1">
          <mxGeometry relative="1" as="geometry">
            <Array as="points">
              <mxPoint x="320" y="360" />
              <mxPoint x="700" y="360" />
            </Array>
          </mxGeometry>
        </mxCell>
        <mxCell id="1DnQPQAhIGeWm2nKyo7e-17" value="&lt;font style=&quot;font-size: 10px;&quot;&gt;Методология по лечению сельскохозяйственных культур&lt;/font&gt;" style="text;html=1;align=center;verticalAlign=middle;whiteSpace=wrap;rounded=0;" parent="1" vertex="1">
          <mxGeometry x="260" y="260" width="120" height="60" as="geometry" />
        </mxCell>
        <mxCell id="1DnQPQAhIGeWm2nKyo7e-18" style="edgeStyle=orthogonalEdgeStyle;rounded=0;orthogonalLoop=1;jettySize=auto;html=1;jumpStyle=arc;" parent="1" source="1DnQPQAhIGeWm2nKyo7e-19" target="1DnQPQAhIGeWm2nKyo7e-12" edge="1">
          <mxGeometry relative="1" as="geometry">
            <mxPoint x="520" y="690" as="targetPoint" />
          </mxGeometry>
        </mxCell>
        <mxCell id="1DnQPQAhIGeWm2nKyo7e-30" style="edgeStyle=orthogonalEdgeStyle;rounded=0;orthogonalLoop=1;jettySize=auto;html=1;jumpStyle=arc;" parent="1" source="1DnQPQAhIGeWm2nKyo7e-19" target="1DnQPQAhIGeWm2nKyo7e-25" edge="1">
          <mxGeometry relative="1" as="geometry">
            <Array as="points">
              <mxPoint x="320" y="690" />
              <mxPoint x="510" y="690" />
            </Array>
          </mxGeometry>
        </mxCell>
        <mxCell id="1DnQPQAhIGeWm2nKyo7e-31" style="edgeStyle=orthogonalEdgeStyle;rounded=0;orthogonalLoop=1;jettySize=auto;html=1;" parent="1" source="1DnQPQAhIGeWm2nKyo7e-19" target="1DnQPQAhIGeWm2nKyo7e-26" edge="1">
          <mxGeometry relative="1" as="geometry">
            <Array as="points">
              <mxPoint x="320" y="690" />
              <mxPoint x="700" y="690" />
            </Array>
          </mxGeometry>
        </mxCell>
        <mxCell id="1DnQPQAhIGeWm2nKyo7e-19" value="Программа" style="text;html=1;align=center;verticalAlign=middle;whiteSpace=wrap;rounded=0;" parent="1" vertex="1">
          <mxGeometry x="290" y="750" width="60" height="30" as="geometry" />
        </mxCell>
        <mxCell id="1DnQPQAhIGeWm2nKyo7e-20" value="Инструкции к лечению растения" style="text;html=1;align=center;verticalAlign=middle;whiteSpace=wrap;rounded=0;" parent="1" vertex="1">
          <mxGeometry x="870" y="595" width="60" height="50" as="geometry" />
        </mxCell>
        <mxCell id="1DnQPQAhIGeWm2nKyo7e-32" style="edgeStyle=orthogonalEdgeStyle;rounded=0;orthogonalLoop=1;jettySize=auto;html=1;jumpStyle=arc;" parent="1" source="1DnQPQAhIGeWm2nKyo7e-23" target="1DnQPQAhIGeWm2nKyo7e-26" edge="1">
          <mxGeometry relative="1" as="geometry">
            <Array as="points">
              <mxPoint x="370" y="640" />
              <mxPoint x="370" y="640" />
            </Array>
          </mxGeometry>
        </mxCell>
        <mxCell id="1DnQPQAhIGeWm2nKyo7e-23" value="Данные о препарате" style="text;html=1;align=center;verticalAlign=middle;whiteSpace=wrap;rounded=0;" parent="1" vertex="1">
          <mxGeometry x="20" y="610" width="60" height="50" as="geometry" />
        </mxCell>
        <mxCell id="1DnQPQAhIGeWm2nKyo7e-27" style="edgeStyle=orthogonalEdgeStyle;rounded=0;orthogonalLoop=1;jettySize=auto;html=1;" parent="1" source="1DnQPQAhIGeWm2nKyo7e-25" target="1DnQPQAhIGeWm2nKyo7e-26" edge="1">
          <mxGeometry relative="1" as="geometry">
            <Array as="points">
              <mxPoint x="600" y="530" />
              <mxPoint x="600" y="610" />
            </Array>
          </mxGeometry>
        </mxCell>
        <mxCell id="1DnQPQAhIGeWm2nKyo7e-25" value="Рассчитать радиус обработки" style="rounded=0;whiteSpace=wrap;html=1;" parent="1" vertex="1">
          <mxGeometry x="440" y="490" width="140" height="80" as="geometry" />
        </mxCell>
        <mxCell id="1DnQPQAhIGeWm2nKyo7e-35" style="edgeStyle=orthogonalEdgeStyle;rounded=0;orthogonalLoop=1;jettySize=auto;html=1;" parent="1" source="1DnQPQAhIGeWm2nKyo7e-26" target="1DnQPQAhIGeWm2nKyo7e-20" edge="1">
          <mxGeometry relative="1" as="geometry">
            <mxPoint x="870" y="680" as="sourcePoint" />
            <mxPoint x="910" y="620" as="targetPoint" />
            <Array as="points" />
          </mxGeometry>
        </mxCell>
        <mxCell id="1DnQPQAhIGeWm2nKyo7e-26" value="Рассчитать использование препарата" style="rounded=0;whiteSpace=wrap;html=1;" parent="1" vertex="1">
          <mxGeometry x="630" y="580" width="140" height="80" as="geometry" />
        </mxCell>
        <mxCell id="1DnQPQAhIGeWm2nKyo7e-33" value="6" style="text;html=1;align=center;verticalAlign=middle;whiteSpace=wrap;rounded=0;" parent="1" vertex="1">
          <mxGeometry x="530" y="540" width="60" height="30" as="geometry" />
        </mxCell>
        <mxCell id="1DnQPQAhIGeWm2nKyo7e-34" value="7" style="text;html=1;align=center;verticalAlign=middle;whiteSpace=wrap;rounded=0;" parent="1" vertex="1">
          <mxGeometry x="720" y="630" width="60" height="30" as="geometry" />
        </mxCell>
        <mxCell id="1DnQPQAhIGeWm2nKyo7e-37" value="Список областей обработки" style="text;html=1;align=center;verticalAlign=middle;whiteSpace=wrap;rounded=0;" parent="1" vertex="1">
          <mxGeometry x="610" y="470" width="60" height="50" as="geometry" />
        </mxCell>
        <mxCell id="1DnQPQAhIGeWm2nKyo7e-38" value="" style="endArrow=none;html=1;rounded=0;" parent="1" target="1DnQPQAhIGeWm2nKyo7e-37" edge="1">
          <mxGeometry width="50" height="50" relative="1" as="geometry">
            <mxPoint x="600" y="560" as="sourcePoint" />
            <mxPoint x="640" y="410" as="targetPoint" />
          </mxGeometry>
        </mxCell>
        <mxCell id="1DnQPQAhIGeWm2nKyo7e-39" value="Список точек поражения" style="text;html=1;align=center;verticalAlign=middle;whiteSpace=wrap;rounded=0;" parent="1" vertex="1">
          <mxGeometry x="413" y="380" width="60" height="50" as="geometry" />
        </mxCell>
        <mxCell id="1DnQPQAhIGeWm2nKyo7e-40" value="" style="endArrow=none;html=1;rounded=0;" parent="1" target="1DnQPQAhIGeWm2nKyo7e-39" edge="1">
          <mxGeometry width="50" height="50" relative="1" as="geometry">
            <mxPoint x="410" y="480" as="sourcePoint" />
            <mxPoint x="635" y="530" as="targetPoint" />
          </mxGeometry>
        </mxCell>
      </root>
    </mxGraphModel>
  </diagram>
</mxfile>
